PathFileType	4	(X/Y/Z)	C:/Users/Carlo/Dropbox/Carlos/SARAH/CongressoMarcha2025/WorkshopOpenSim/C3D/Caso01/Walking 01.c3d.trc
DataRate	CameraRate	NumFrames	NumMarkers	Units	OrigDataRate	OrigDataStartFrame	OrigNumFrames
100.000000	100.000000	4	85	mm	100.000000	187	375
Frame#	Time	PELO			PELA			PELL			PELP			LFEO			LFEA			LFEL			LFEP			LTIO			LTIA			LTIL			LTIP			LFOO			LFOA			LFOL			LFOP			LTOO			LTOA			LTOL			LTOP			RFEO			RFEA			RFEL			RFEP			RTIO			RTIA			RTIL			RTIP			RFOO			RFOA			RFOL			RFOP			RTOO			RTOA			RTOL			RTOP			LASI			RASI			RPSI			LTHI			LKNE			LTIB			LANK			LHEE			LTOE			RTHI			RKNE			RTIB			RANK			RHEE			RTOE			LPSI			LHipAngles			LKneeAngles			LAbsAnkleAngle			LAnkleAngles			RHipAngles			RKneeAngles			RAnkleAngles			RAbsAnkleAngle			LPelvisAngles			RPelvisAngles			LFootProgressAngles			RFootProgressAngles			LHipPower			LKneePower			LAnklePower			RHipPower			RKneePower			RAnklePower			LGroundReactionForce			LNormalisedGRF			LAnkleForce			RAnkleForce			RKneeForce			LKneeForce			RHipForce			LHipForce			LGroundReactionMoment			LAnkleMoment			RAnkleMoment			RKneeMoment			LKneeMoment			RHipMoment			LHipMoment			
		X1	Y1	Z1	X2	Y2	Z2	X3	Y3	Z3	X4	Y4	Z4	X5	Y5	Z5	X6	Y6	Z6	X7	Y7	Z7	X8	Y8	Z8	X9	Y9	Z9	X10	Y10	Z10	X11	Y11	Z11	X12	Y12	Z12	X13	Y13	Z13	X14	Y14	Z14	X15	Y15	Z15	X16	Y16	Z16	X17	Y17	Z17	X18	Y18	Z18	X19	Y19	Z19	X20	Y20	Z20	X21	Y21	Z21	X22	Y22	Z22	X23	Y23	Z23	X24	Y24	Z24	X25	Y25	Z25	X26	Y26	Z26	X27	Y27	Z27	X28	Y28	Z28	X29	Y29	Z29	X30	Y30	Z30	X31	Y31	Z31	X32	Y32	Z32	X33	Y33	Z33	X34	Y34	Z34	X35	Y35	Z35	X36	Y36	Z36	X37	Y37	Z37	X38	Y38	Z38	X39	Y39	Z39	X40	Y40	Z40	X41	Y41	Z41	X42	Y42	Z42	X43	Y43	Z43	X44	Y44	Z44	X45	Y45	Z45	X46	Y46	Z46	X47	Y47	Z47	X48	Y48	Z48	X49	Y49	Z49	X50	Y50	Z50	X51	Y51	Z51	X52	Y52	Z52	X53	Y53	Z53	X54	Y54	Z54	X55	Y55	Z55	X56	Y56	Z56	X57	Y57	Z57	X58	Y58	Z58	X59	Y59	Z59	X60	Y60	Z60	X61	Y61	Z61	X62	Y62	Z62	X63	Y63	Z63	X64	Y64	Z64	X65	Y65	Z65	X66	Y66	Z66	X67	Y67	Z67	X68	Y68	Z68	X69	Y69	Z69	X70	Y70	Z70	X71	Y71	Z71	X72	Y72	Z72	X73	Y73	Z73	X74	Y74	Z74	X75	Y75	Z75	X76	Y76	Z76	X77	Y77	Z77	X78	Y78	Z78	X79	Y79	Z79	X80	Y80	Z80	X81	Y81	Z81	X82	Y82	Z82	X83	Y83	Z83	X84	Y84	Z84	X85	Y85	Z85	

188	1.87	188.2513580322266	935.382690429688	236.3390045166017	182.123031616211	932.9284057617192	365.0963745117189	316.998748779297	938.198852539063	242.5205383300782	185.3212280273438	1064.255126953125	238.6560211181642	243.983612060547	528.8344726562502	321.8123474121095	219.6622161865236	611.5273437500002	729.0780029296877	659.4699707031252	525.1931762695315	347.3640136718751	252.6216735839845	936.8095092773442	239.4912719726564	217.7923583984376	96.65001678466803	239.0489959716798	141.1818389892579	23.38426971435548	645.881774902344	630.4143066406252	58.09429168701175	309.8062133789064	242.7715148925782	508.833923339844	317.9822387695314	232.2947235107423	83.19104766845706	393.7069091796877	242.3484954833986	300.7127075195314	391.7364807128909	449.820739746094	73.12514495849612	392.3906555175784	230.8888549804689	81.28351593017581	175.957015991211	232.7633361816407	83.82686614990237	466.2901916503909	236.1145782470704	156.3340911865235	465.6334228515627	305.2720031738282	80.47158813476565	465.8514709472659	232.2947387695314	83.19106292724612	393.7069091796877	87.93109893798831	515.472351074219	349.2511596679689	79.0358810424805	632.6189575195315	768.881225585938	522.1203613281252	483.2227478027346	367.4580078125001	123.881088256836	933.9558105468755	233.1867065429689	80.55037689208987	280.2355957031251	-20.84304428100587	116.8705749511719	-72.0271911621094	202.3355712890626	497.5014343261721	307.127899169922	-46.25132751464845	87.59452819824222	504.7453918457034	332.3745117187501	66.55428314208987	142.2380523681641	49.64241790771487	75.68719482421878	257.5444335937501	233.6003723144532	283.6603088378907	138.2589263916016	41.35796356201173	65.52687072753909	326.3795776367189	-65.72801208496097	66.89675140380862	80.857536315918	88.09922790527347	69.94105529785159	119.2929992675782	149.4185485839844	139.2654418945313	79.53115844726565	85.33774566650393	66.55428314208987	142.2380371093751	49.6424255371094	291.1846313476564	1033.85400390625	290.313934326172	76.42513275146487	1029.156494140625	280.0027160644532	140.8670501708985	1031.033935546875	87.88639831542972	361.980194091797	734.6245117187502	287.0744934082032	301.8720092773439	528.327087402344	325.3723754882814	296.7033691406251	286.8244628906251	288.1568603515626	262.4487915039064	92.4772872924805	246.7067718505861	221.0502471923829	57.785514831543	174.7087707519532	221.3995666503907	59.17134475708011	401.4780578613284	3.958047389984133	788.000854492188	271.3903198242189	31.13731384277345	519.6907348632815	346.869598388672	14.40325450897218	429.0419616699221	224.7962493896486	34.2323570251465	277.2481689453126	-18.02050209045411	83.44041442871097	313.0860290527345	-86.01885986328128	74.58484649658206	125.0228958129883	35.74986648559572	253.5454254150392	1039.514770507813	97.04959106445318	1.87086057662964	0.4068678915500643	12.54753780364991	3.568928003311159	6.960713386535648	22.06713294982911	0	0	11.34467220306397	2.783179044723512	-10.01032733917237	11.52242088317871	-5.197562694549562	1.821684002876283	16.82139015197755	-0.7064900398254397	9.847351074218754	73.03798675537112	1.412587881088257	-4.701186656951906	-0.3687776029109956	0	0	-0.36753448843956	1.30227530002594	2.725199699401856	1.030016899108887	-1.30227530002594	-2.725199699401856	1.030016899108887	2.646247386932374	-0.3698962032794954	-90.50189208984378	-2.40881896018982	0.2708982527256013	-32.06843185424806	0	-0.7737864851951604	0	0	1.339531421661377	0	0	-0.2350100576877595	0	0	0.166428416967392	0	0	0.03067520074546339	0	0	0.02363972738385202	0	-0.295521765947342	9.30070781707764	-1.045119762420655	3.012454509735109	94.8084411621094	-10.65361595153809	0.7129314541816714	0.961627840995789	9.142646789550785	0.01135779451578856	0.07733085751533511	-0.08443799614906314	0.05671356618404391	0.07967043668031695	-0.1146636009216309	1.240684390068055	-8.32281589508057	2.359866619110108	-0.04934478551149371	1.097586154937745	-0.03222520649433137	0.3762061893939974	-7.769716739654545	-0.8334807753562932	-474.7558593750002	-42.61148834228517	-25.14428329467775	-74.83753204345706	55.937858581543	495.3894042968752	-9.473903372872764e-17	-0.3026622533798219	-21.8319492340088	-7.467934608459476	-0.8522593379020695	137.291732788086	396.010681152344	46.50788879394533	636.1687011718752	-11.7061243057251	28.76594734191896	-47.36435317993165	491.908386230469	-36.50167083740236	-294.2768554687501	
189	1.88	188.8446960449219	938.6779174804692	252.4527282714845	183.6587982177735	936.3202514648442	381.2532653808595	317.6471252441407	940.8386840820317	257.6782531738282	186.5904846191407	1067.564697265625	254.7212066650392	243.8288574218751	529.054382324219	326.6286926269532	222.9304809570314	600.9492187500002	736.8586425781252	660.2047119140627	523.3764648437502	348.8352355957032	253.2430725097657	939.776977539063	255.1270751953126	217.385955810547	97.21939849853521	240.1266937255861	147.0493469238282	19.87622833251954	647.740417480469	631.5053710937502	58.99977493286136	304.3338928222657	242.6062164306642	509.0876770019534	322.6290893554689	232.2261810302736	82.93988037109378	394.6789550781252	242.5354461669923	300.4567871093751	393.8151550292971	449.7364807128909	72.62351226806643	392.8112487792971	230.3196716308595	82.16551208496097	176.9258270263672	232.8616638183595	83.19800567626956	467.2633056640627	236.2980804443361	155.7036590576172	466.9753723144534	305.3650817871095	79.75922393798831	466.6407470703127	232.2261657714845	82.93986511230472	394.6789550781252	89.72523498535159	523.5430908203127	378.4475708007814	82.78342437744143	653.1384277343752	793.590454101563	523.237731933594	492.4571228027346	395.4006652832034	124.4463653564454	937.578735351563	249.7784729003907	82.04495239257815	275.2208862304689	17.0688591003418	113.7117767333985	-69.05487060546878	252.965789794922	499.3211364746096	297.1845703125001	-6.891798019409183	89.3749694824219	512.2182617187502	361.9666442871095	67.19883728027347	140.6764373779297	93.78126525878909	76.04660797119143	264.3084106445314	272.2647094726564	284.3190307617189	135.4783020019532	86.61884307861331	67.39339447021487	319.3034667968751	-29.9597854614258	67.13398742675784	81.13410186767581	135.0282897949219	70.08325195312503	122.3447494506837	194.5227661132814	139.5073852539063	79.40139007568362	132.6408081054688	67.19882965087893	140.6764526367188	93.78127288818362	292.6612854003907	1036.648559570313	305.6089172363282	77.84196472167972	1033.044799804688	296.8937072753907	140.6272277832032	1034.254516601563	104.2206039428712	361.8251953125001	735.409118652344	296.4750366210939	301.741180419922	528.2646484375002	329.7172851562501	296.6217651367189	287.2296752929689	289.8531188964845	262.1629028320314	93.08687591552737	247.0691375732423	220.8738098144532	58.11737060546878	174.9051818847657	221.3032073974611	59.05781936645511	401.6527404785159	4.508615016937258	793.5990600585942	292.7190856933595	32.91440963745119	527.6168212890627	376.2258605957032	16.37787246704102	433.5572814941409	256.9654235839845	35.68537902832033	272.7807006835939	19.73089981079102	85.008171081543	305.1399841308595	-50.13730621337893	75.24611663818362	123.4761047363282	80.45259094238284	253.3340606689454	1042.635864257813	112.6818923950196	1.840163707733155	0.4187798798084261	10.97111892700196	3.265132665634157	6.487853527069095	21.05085372924805	0	0	11.54013538360596	2.59801197052002	-9.257245063781742	11.69454860687256	-4.802051067352297	1.594827294349671	18.49752807617188	-0.5216612219810488	8.984737396240238	72.74340820312503	1.346434712409974	-4.394875049591066	0.2163844704627992	0	0	0.2157461643218995	1.001835703849793	2.305614709854127	1.008328676223755	-1.001835703849793	-2.305614709854127	1.008328676223755	2.713598489761353	-0.5016332864761355	-90.20375061035159	-2.333543062210084	-0.05129671096801761	-34.71167373657228	0	-0.7772345542907719	0	0	1.230406761169434	0	0	-0.2158099561929704	0	0	0.02770760096609594	0	0	0.09540384262800222	0	0	0.02013887651264668	0	-0.3086301088333131	8.677526473999027	-0.938712060451508	3.146076679229738	88.45593261718753	-9.568929672241214	0.7054472565650942	0.9069611430168156	8.513159751892093	0.008998910896480087	0.05433955788612368	-0.08455206453800204	0.04914044588804248	0.06799115985631946	-0.1358032524585724	1.16425359249115	-7.712675094604496	2.243413925170899	-0.04014967009425165	1.007234454154969	-0.07790648937225345	0.4323592185974123	-7.217659950256351	-0.5959123969078066	-524.5850830078127	-41.86273574829103	-22.23483276367188	-69.60767364501956	58.68599700927737	536.4329223632815	1.421085439756465e-16	0.1141176521778107	-20.32445335388184	-6.77491664886475	-0.3576051592826844	113.2600631713868	362.5112609863282	49.90760421752933	537.431579589844	-3.917025327682497	22.87695884704591	-3.732326507568361	494.8304443359377	-30.50339698791505	-297.5588378906251	
190	1.89	189.4208374023438	941.7164916992192	268.577850341797	185.2527618408204	939.4355468750005	397.4167480468752	318.2702026367189	943.2252807617192	272.7729797363282	187.838851928711	1070.614013671875	270.8086547851564	243.6779022216798	529.3052978515627	331.0994262695314	225.8836822509767	590.0594482421877	743.968200683594	660.8689575195315	521.8289184570315	350.1800842285157	253.843231201172	942.4897460937505	270.7369689941407	216.968475341797	97.80113983154303	241.1801605224611	152.8709716796876	16.68553924560548	649.4766235351565	632.4643554687502	60.052848815918	298.9084777832032	242.4439849853517	509.370788574219	326.9453735351564	232.1743469238282	82.70257568359378	395.6189880371096	242.687225341797	300.2113647460939	395.8628540039065	449.6694946289065	72.19311523437503	393.1627502441409	229.7327575683595	83.06472015380862	177.8701782226563	232.9882354736329	82.58186340332034	468.2019348144534	236.4925231933595	155.0847778320313	468.2832336425784	305.4866027832032	79.07872009277347	467.3831787109377	232.1743621826173	82.70257568359378	395.6189880371096	91.54042816162112	531.502624511719	406.7701110839846	86.64756774902347	672.6214599609377	817.2833862304692	524.3408813476565	501.4458618164065	422.2609863281252	124.9983978271485	940.9433593750005	266.4187622070314	83.64897918701175	268.8302001953126	55.51394653320315	110.5457992553712	-66.0629577636719	305.3457336425782	501.3959655761721	285.8725585937501	33.38426971435548	91.18064117431643	519.527038574219	390.7558288574221	67.91921997070315	138.3079681396485	138.7241210937501	76.49324035644534	270.5916748046876	310.9071350097657	285.0454711914064	131.9230194091797	132.8175048828126	69.38277435302737	310.5860595703126	6.294479370117191	67.43135833740237	80.881950378418	182.8673400878907	70.28936767578128	124.9765396118165	240.261688232422	139.8067932128907	78.7536315917969	180.8984680175782	67.91921234130862	138.3079681396485	138.7241210937501	294.1392211914064	1039.179321289063	320.8599243164064	79.27271270751956	1036.663330078125	313.864227294922	140.3366394042969	1037.250610351563	120.5866851806641	361.6074829101564	736.1566162109377	305.743621826172	301.6080322265626	528.2670898437502	333.7489013671876	296.5271911621095	287.7088012695314	291.3985290527345	261.8541870117189	93.72322082519534	247.4165039062501	220.6396484375001	58.46954345703128	175.1101379394532	221.2286987304689	58.95214843750003	401.8439941406252	4.980051994323732	799.115844726563	313.7431030273439	34.71359252929689	535.4490356445315	404.7361145019534	18.3691635131836	437.4786682128909	288.6109924316407	37.25257492065431	266.9374084472657	57.97174453735354	86.74188995361331	295.5487365722657	-13.64597320556641	75.98474884033206	121.0258255004883	126.0195465087891	253.0734863281251	1045.515014648438	128.3049468994141	1.787700176239015	0.499321520328522	9.368425369262699	2.993584632873536	5.993369579315187	19.95598602294923	0	0	11.6931266784668	2.419072389602662	-8.526314735412601	11.82567977905274	-4.447308063507082	1.339696764945984	20.07763099670411	-0.2893101274967195	8.08962440490723	72.10586547851565	1.279162406921387	-4.083117961883547	0.7547505497932439	0	0	0.7528287172317509	0.7030525803565981	1.852781057357789	0.9915089011192326	-0.7030525803565981	-1.852781057357789	0.9915089011192326	2.767294883728028	-0.6424217224121096	-89.90470886230472	-2.261355638504029	-0.3859010338783266	-37.54937744140626	0	-0.8181155323982243	0	0	1.102834939956665	0	0	-0.1926739662885667	0	0	-0.07862952351570132	0	0	0.13247349858284	0	0	0.01779097877442837	0	-0.3077645599842073	8.047905921936039	-0.854815781116486	3.137253284454347	82.03778076171878	-8.713718414306644	0.6799758076667788	0.8685951828956608	7.878884315490726	0.007116140797734264	0.03388829901814462	-0.08944980055093768	0.04256030544638635	0.06640314310789111	-0.1548141390085221	1.075433731079102	-7.097120761871341	2.133975267410279	-0.0310131497681141	0.9296677708625798	-0.1226694658398629	0.4592177271842959	-6.650770664215091	-0.3585060536861421	-564.9446411132815	-42.77270889282228	-17.71455574035645	-66.6560974121094	62.04423141479495	567.2495117187502	-3.315866114331018e-16	0.4768680632114413	-19.62661933898926	-6.446394920349125	0.05702009797096255	92.27929687500003	324.9023742675782	53.45793151855472	451.7759094238284	2.025099277496339	18.3082447052002	33.70108032226564	479.9560546875002	-20.28245925903321	-312.928436279297	
191	1.9	190.0007019042969	944.429077148438	284.7087707519532	186.9153594970704	942.207641601563	413.5792236328127	318.8869628906251	945.2966918945317	287.8094482421876	189.0800323486329	1073.33349609375	286.9087219238282	243.5397186279298	529.5669555664065	335.2742004394532	228.5337829589845	578.8941040039065	750.4167480468752	661.4603271484377	520.503601074219	351.4574584960939	254.4421997070314	944.8817749023442	286.3206787109376	216.5256805419923	98.39517211914068	242.2184448242189	158.6989440917969	13.77440643310548	651.093933105469	633.2700195312502	61.22490310668948	293.465301513672	242.2927246093751	509.6632995605471	330.9785766601564	232.1425018310548	82.4795837402344	396.5341796875002	242.8260803222657	299.9760131835939	397.883239746094	449.6219482421877	71.81611633300784	393.4268798828127	229.1050720214845	83.97933197021487	178.7976531982422	233.154998779297	81.97963714599612	469.1130065917971	236.7161865234376	154.4784393310547	469.562683105469	305.648162841797	78.42515563964847	468.0772399902346	232.1425170898439	82.47955322265628	396.5341796875002	93.36309051513675	539.1887817382815	434.1741638183596	90.79615783691409	690.861511230469	840.0100708007817	525.4172363281252	509.9256591796877	447.8434143066409	125.5592193603516	943.976440429688	283.0968627929689	85.35903167724612	261.2177734375001	94.50413513183597	107.7114868164063	-62.82708740234378	359.1614990234376	503.677429199219	273.6877441406251	74.44191741943362	92.99842834472659	526.5244750976565	418.6988525390627	68.69581604003909	135.3137817382813	184.3813934326172	77.03623199462893	276.4308166503907	349.4144592285157	285.8181152343751	127.7642822265626	179.8639526367188	71.49576568603518	300.3849182128907	43.09031677246095	67.76250457763675	80.29006195068362	231.4784393310548	70.54264068603518	127.3290710449219	286.4894409179689	140.1366271972657	77.77355957031253	229.972625732422	68.69581604003909	135.3137664794922	184.3814086914063	295.6312561035157	1041.38427734375	336.0662841796876	80.72782897949222	1039.937622070313	330.8962707519532	140.009262084961	1039.944946289063	136.9762420654297	361.3348999023439	736.8248291015627	314.9057006835939	301.4826660156251	528.3103027343752	337.5179138183595	296.4157104492189	288.2490844726564	292.809295654297	261.5095825195314	94.38295745849612	247.7500915527345	220.3361968994142	58.85061264038089	175.3286437988282	221.177459716797	58.85755920410159	402.0502014160159	5.389840602874758	804.4512329101567	334.4813842773439	36.52169418334962	543.0386352539065	432.3757934570315	20.35451698303223	440.6995544433596	319.750701904297	38.93298721313478	259.8338317871095	96.73068237304693	88.65348052978518	284.4421997070314	23.5470199584961	76.77544403076175	117.8366012573243	172.3803405761719	252.7783966064454	1048.083251953125	143.9132843017579	1.714562058448792	0.6419924497604372	7.744727611541752	2.755592107772828	5.467789173126222	18.79528617858887	0	0	11.8105525970459	2.245364904403687	-7.813992500305179	11.9228572845459	-4.139742851257326	1.089267730712891	21.55426025390626	0.009962630458176139	7.201927185058597	71.14673614501956	1.222244858741761	-3.819152832031252	1.255186080932618	0	0	1.252395391464234	0.4091531634330752	1.371307253837586	0.977750420570374	-0.4091531634330752	-1.371307253837586	0.977750420570374	2.812364101409913	-0.7992076277732854	-89.60534667968753	-2.199846267700196	-0.7382850646972658	-40.56156158447267	0	-0.8370171785354619	0	0	0.9515200257301335	0	0	-0.1683873236179352	0	0	-0.1513684540987015	0	0	0.150829166173935	0	0	0.01640803739428521	0	-0.2822362184524537	7.484494686126713	-0.7694503664970402	2.877025604248048	76.29454040527347	-7.84353065490723	0.6308209896087649	0.822194635868073	7.312866210937504	0.005781058222055437	0.0168971922248602	-0.09809368848800665	0.0363387204706669	0.07357923686504367	-0.1700147539377213	0.9686158895492558	-6.551646232604984	2.024637937545777	-0.02436831407248975	0.8650545477867131	-0.1625959277153016	0.4495660960674288	-6.134897232055668	-0.1554651558399201	-597.212829589844	-42.6962356567383	-13.60423088073731	-66.16458129882815	63.77289581298831	592.501647949219	-3.552713467042266e-16	0.7008047103881838	-19.56355476379395	-6.543089389801029	0.3118350803852082	75.12528228759768	279.5381774902345	54.96041107177737	371.4111938476564	6.275521278381351	15.16101360321046	63.86066055297854	440.9816894531252	-8.243103027343754	-317.967498779297	
